HIERARCHY
ROOT Hips
{
	OFFSET 0.00000 0.00000 0.00000
	CHANNELS 6 Xposition Yposition Zposition Yrotation Zrotation Xrotation 
	JOINT Lumbar
	{
		OFFSET 0 0 0
		CHANNELS 3 Zrotation Xrotation Yrotation
		JOINT Neck
		{
			OFFSET 0.00 0.2701 0.00
			CHANNELS 3 Zrotation Xrotation Yrotation
			End Site
			{
				OFFSET 0.00 0.1379 0.00
			}
		}
		JOINT RightShoulder
		{
			OFFSET 0.0119 0.2289 0.1181
			CHANNELS 3 Zrotation Xrotation Yrotation
			JOINT RightElbow
			{
				OFFSET 0.00 -0.1475 0.00
				CHANNELS 2 Zrotation Yrotation
				JOINT RightWrist
				{
					OFFSET 0.00 -0.1605 0.00
					CHANNELS 2 Zrotation Xrotation
					End Site
					{
						OFFSET 0.0040 -0.1068 0.0006
					}
				}
			}
		}
		JOINT LeftShoulder
		{
			OFFSET 0.0119 0.2289 -0.1181
			CHANNELS 3 Zrotation Xrotation Yrotation
			JOINT LeftElbow
			{
				OFFSET 0.00 -0.1475 0.00
				CHANNELS 2 Zrotation Yrotation
				JOINT LeftWrist
				{
					OFFSET 0.00 -0.1605 0.00
					CHANNELS 2 Zrotation Xrotation
					End Site
					{
						OFFSET 0.0040 -0.1068 -0.0006
					}
				}
			}
		}
	}
	JOINT RightHip
	{
		OFFSET 0.0316 -0.0424 0.0458
		CHANNELS 3 Zrotation Xrotation Yrotation
		JOINT RightKnee
		{
			OFFSET 0.00 -0.2438 0.00
			CHANNELS 1 Zrotation
			JOINT RightAnkle
			{
				OFFSET 0.00 -0.2449 0.00
				CHANNELS 3 Zrotation Xrotation Yrotation
				End Site
				{
					OFFSET 0.1237 -0.0542 0.0051
				}
			}
		}
	}
	JOINT LeftHip
	{
		OFFSET 0.0316 -0.0424 -0.0458
		CHANNELS 3 Zrotation Xrotation Yrotation
		JOINT LeftKnee
		{
			OFFSET 0.00 -0.2438 0.00
			CHANNELS 1 Zrotation
			JOINT LeftAnkle
			{
				OFFSET 0.00 -0.2449 0.00
				CHANNELS 3 Zrotation Xrotation Yrotation
				End Site
				{
					OFFSET 0.1237 -0.0542 -0.0051
				}
			}
		}
	}
}
MOTION
Frames: 16
Frame Time: 0.02
-0.00027 2e-05 -4e-05 -174.80956 45.23204 0.08417 -81.84014 6.35544 165.72454 50.87675 -81.03779 0.48939 22.31486 99.38363 184.2002 6.54751 89.97546 -2.84459 17.39236 -290.74875 -97.07083 -200.16387 0.78952 -156.96323 135.05277 -3.95542 -46.07627 24.04845 95.88352 18.01966 -99.96784 63.46264 37.78291 -43.96595 -30.51605 -95.82672 23.49 -98.31385 -62.51992 -38.35814
-0.00049 1e-05 -0.00012 -139.74884 36.08766 0.06944 -67.87868 5.81375 149.27425 44.98368 -73.08872 0.36717 36.02117 81.74898 160.1419 7.09031 88.83485 -2.53389 14.99804 -245.38056 -79.89975 -172.90615 1.69931 -148.90356 121.51093 -2.6298 -36.32935 21.51923 86.26605 14.31935 -90.77171 56.59473 33.65503 -34.41463 -27.18657 -86.22054 18.70484 -89.44924 -55.66691 -34.11497
-0.00071 0 -0.00021 -104.79602 26.97149 0.05476 -53.96021 5.27371 132.87465 39.10861 -65.16412 0.24532 49.68537 64.16864 136.15785 7.63142 87.69777 -2.22419 12.61109 -200.15215 -62.78153 -145.73235 2.60627 -140.86871 108.01081 -1.30826 -26.61254 18.99767 76.67731 10.63043 -81.60382 49.74806 29.5399 -24.89278 -23.86719 -76.6433 13.93443 -80.61184 -48.83504 -29.88489
-0.00093 -0 -0.0003 -69.8433 17.85529 0.04008 -40.04175 4.73368 116.47503 33.23366 -57.23954 0.12347 63.34948 46.58831 112.17369 8.17254 86.56068 -1.91445 10.22414 -154.92372 -45.66334 -118.55859 3.51325 -132.83387 94.51069 0.01328 -16.89565 16.47622 67.08931 6.94152 -72.436 42.90133 25.42474 -15.37089 -20.54794 -67.0666 9.16401 -71.77452 -42.00314 -25.65479
-0.00115 -1e-05 -0.00039 -34.78272 8.71086 0.02534 -26.08031 4.19202 100.02472 27.34076 -49.2905 0.00124 77.05565 28.95366 88.11521 8.71539 85.42008 -1.6037 7.82985 -109.55549 -28.4923 -91.30095 4.42306 -124.77421 80.96884 1.33888 -7.14864 13.94717 57.47293 3.24121 -63.23997 36.03333 21.2968 -5.81949 -17.21866 -57.46124 4.37885 -62.91005 -35.15008 -21.41158
-0.00137 -2e-05 -0.00048 -0.0584 -0.34541 0.01079 -12.25296 3.6554 83.73264 21.50352 -41.41773 -0.11981 90.63081 11.48849 64.28893 9.2528 84.29044 -1.29621 5.45846 -64.62357 -11.48605 -64.3049 5.32398 -116.79198 67.55722 2.65183 2.50414 11.44149 47.94287 -0.42356 -54.13179 29.23187 17.20886 3.63971 -13.92029 -47.94367 -0.3603 -54.13007 -28.36315 -17.20936
-0.00159 -2e-05 -0.00056 35.30221 -9.56854 -0.00413 1.82814 3.10925 67.14108 15.56106 -33.40063 -0.24309 104.45388 -6.2974 40.02316 9.80051 83.14005 -0.98252 3.04372 -18.8659 5.83201 -36.81384 6.24175 -108.66321 53.89913 3.98872 12.33533 8.89168 38.2501 -4.15558 -44.85739 22.30443 13.04518 13.27343 -10.56353 -38.26044 -5.18652 -45.19025 -21.45103 -12.92954
-0.00181 -3e-05 -0.00065 70.07982 -18.63879 -0.01871 15.67676 2.57184 50.82393 9.71499 -25.51577 -0.36433 118.04973 -23.78946 16.16 10.33879 82.00868 -0.6745 0.66871 26.13518 22.8644 -9.77634 7.14407 -100.66871 40.46686 5.30366 22.00305 6.38233 28.7065 -7.82598 -35.7353 15.49242 8.95089 22.74724 -7.26028 -28.72905 -9.93297 -36.3969 -14.65361 -8.72082
-0.00202 -4e-05 -0.00074 104.1445 -27.52205 -0.03286 29.24102 2.04511 34.84234 3.98679 -17.79263 -0.48307 131.36803 -40.92207 -7.21043 10.86552 80.90055 -0.37347 -1.65775 70.21095 39.54736 16.70656 8.0275 -92.83842 27.3108 6.59184 31.47082 3.92231 19.34451 -11.42102 -26.79939 8.82164 4.9415 32.02548 -4.02237 -19.38281 -14.58185 -27.78256 -7.99651 -4.59908
-0.00225 -4e-05 -0.00083 142.31127 -37.48111 -0.04943 44.44124 1.45688 16.93 -2.41963 -9.13902 -0.61617 146.28423 -60.12249 -33.41478 11.45863 79.65865 -0.03241 -4.26367 119.61051 58.24059 46.38067 9.01966 -84.06334 12.56564 8.03422 42.08892 1.17801 8.93513 -15.44966 -16.79202 1.33847 0.44376 42.42894 -0.40821 -8.9696 -19.79207 -18.13793 -0.53219 0.02306
-0.00246 -5e-05 -0.00091 171.82064 -45.16978 -0.06093 56.1889 0.99846 3.09245 -7.39462 -2.44909 -0.71897 157.82749 -74.9591 -53.63898 11.91172 78.69909 0.22428 -6.2797 157.7745 72.6914 69.31973 9.78232 -77.28219 1.17416 9.151 50.27939 -0.96603 0.73796 -18.56321 -9.04608 -4.43036 -3.02344 50.45772 2.41166 -0.8094 -23.81763 -10.66787 5.22859 3.58916
-0.00266 -7e-05 -0.00101 177.36703 -46.57353 -0.05806 58.37923 0.8994 0.53384 -8.40811 -1.19498 -0.73792 160.03981 -77.71491 -57.30402 11.97661 78.52088 0.24665 -6.66377 164.83767 75.39782 73.61687 9.90983 -76.02049 -0.93384 9.36805 51.74922 -1.45113 -1.35036 -19.14378 -7.5585 -5.45241 -3.63721 51.91272 3.03489 1.1244 -24.56395 -9.21548 6.27336 4.23164
-0.00285 -0.0001 -0.0011 174.25635 -45.70713 -0.0502 57.1173 0.93012 2.04981 -7.99011 -1.90435 -0.72657 158.87838 -76.10756 -54.99044 11.9016 78.62499 0.18475 -6.45784 160.66603 73.86242 71.17907 9.80784 -76.75259 0.3115 9.25928 50.79174 -1.3355 -1.2238 -18.80933 -8.33245 -4.7605 -3.22067 50.99332 2.86348 0.80323 -24.1257 -9.93782 5.61484 3.81825
-0.00304 -0.00013 -0.00119 175.24515 -45.91617 -0.04491 57.49072 0.89933 1.63616 -8.24959 -1.68361 -0.72957 159.3113 -76.56764 -55.51225 11.89326 78.5955 0.16331 -6.53076 161.81561 74.33671 71.93059 9.81443 -76.54029 -0.0315 9.30375 50.98439 -1.50269 -2.13679 -18.90825 -8.03621 -4.88129 -3.29267 51.19884 3.0672 1.54378 -24.24853 -9.63118 5.76337 3.90522
-0.00323 -0.00015 -0.00128 175.52846 -45.9383 -0.03828 57.58036 0.87936 1.55522 -8.39404 -1.62431 -0.7301 159.48314 -76.66634 -55.52859 11.87177 78.58871 0.13283 -6.55783 162.04504 74.46064 72.13357 9.80265 -76.49152 -0.09924 9.3259 50.97616 -1.62799 -2.90889 -18.93228 -7.92124 -4.85784 -3.27798 51.20849 3.21125 2.12731 -24.27424 -9.49814 5.77098 3.90453
-0.00342 -0.00018 -0.00137 175.21727 -45.80859 -0.03333 57.43808 0.86781 1.75261 -8.43683 -1.69675 -0.72856 159.39432 -76.47795 -55.17269 11.84427 78.60188 0.10088 -6.53981 161.5126 74.30352 71.87276 9.77453 -76.5775 0.05878 9.31709 50.80782 -1.69719 -3.44588 -18.89419 -7.96779 -4.72624 -3.19824 51.06012 3.28992 2.49904 -24.21986 -9.52208 5.66616 3.83481
